HIERARCHY
ROOT Hips
{
	OFFSET 0.000000 35.082581 0.000000
	CHANNELS 6 Xposition Yposition Zposition Xrotation Yrotation Zrotation 
	JOINT Spine
	{
		OFFSET 0.000000 6.876099 0.125700
		CHANNELS 3 Xrotation Yrotation Zrotation
		JOINT Spine1
		{
			OFFSET 0.000000 5.730043 0.104720
			CHANNELS 3 Xrotation Yrotation Zrotation
			JOINT Spine1_split
			{
				OFFSET 0.000000 5.730043 0.104720
				CHANNELS 3 Xrotation Yrotation Zrotation
				JOINT Spine2
				{
					OFFSET 0.000000 5.730043 0.104720
					CHANNELS 3 Xrotation Yrotation Zrotation
					JOINT Neck
					{
						OFFSET 0.000000 10.314075 0.188496
						CHANNELS 3 Xrotation Yrotation Zrotation
						JOINT Head
						{
							OFFSET 0.000000 7.643700 -2.377400
							CHANNELS 3 Xrotation Yrotation Zrotation
							JOINT HeadTop_End
							{
								OFFSET 0.000000 43.788605 -13.619600
								CHANNELS 3 Xrotation Yrotation Zrotation
								End Site
								{
									OFFSET 0.000000 0.000000 0.000000
								}
							}
						}
					}
					JOINT LeftShoulder
					{
						OFFSET 2.196100 4.412489 0.087492
						CHANNELS 3 Xrotation Yrotation Zrotation
						JOINT LeftShoulder_split
						{
							OFFSET 2.196100 4.412489 0.087492
							CHANNELS 3 Xrotation Yrotation Zrotation
							JOINT LeftArm
							{
								OFFSET 8.771219 -2.981674 -0.026999
								CHANNELS 3 Xrotation Yrotation Zrotation
								JOINT LeftForeArm
								{
									OFFSET 8.512804 0.000000 -0.000000
									CHANNELS 3 Xrotation Yrotation Zrotation
									JOINT LeftHand
									{
										OFFSET 18.484802 0.000000 -0.000000
										CHANNELS 3 Xrotation Yrotation Zrotation
										JOINT LeftHandThumb1
										{
											OFFSET 2.499420 -1.158070 2.653252
											CHANNELS 3 Xrotation Yrotation Zrotation
											JOINT LeftHandThumb2
											{
												OFFSET 2.370079 -1.368366 1.368366
												CHANNELS 3 Xrotation Yrotation Zrotation
												JOINT LeftHandThumb3
												{
													OFFSET 2.676727 -1.545410 1.545409
													CHANNELS 3 Xrotation Yrotation Zrotation
													JOINT LeftHandThumb4
													{
														OFFSET 1.692226 -0.977005 0.977007
														CHANNELS 3 Xrotation Yrotation Zrotation
														End Site
														{
															OFFSET 0.000000 0.000000 0.000000
														}
													}
												}
											}
										}
										JOINT LeftHandIndex1
										{
											OFFSET 7.924831 -0.457527 2.345128
											CHANNELS 3 Xrotation Yrotation Zrotation
											JOINT LeftHandIndex2
											{
												OFFSET 3.643303 0.000000 0.000000
												CHANNELS 3 Xrotation Yrotation Zrotation
												JOINT LeftHandIndex3
												{
													OFFSET 3.810799 0.000000 0.000000
													CHANNELS 3 Xrotation Yrotation Zrotation
													JOINT LeftHandIndex4
													{
														OFFSET 2.403702 0.000000 0.000000
														CHANNELS 3 Xrotation Yrotation Zrotation
														End Site
														{
															OFFSET 0.000000 0.000000 0.000000
														}
													}
												}
											}
										}
										JOINT LeftHandMiddle1
										{
											OFFSET 8.563995 0.000000 -0.000000
											CHANNELS 3 Xrotation Yrotation Zrotation
											JOINT LeftHandMiddle2
											{
												OFFSET 3.861618 0.000000 0.000000
												CHANNELS 3 Xrotation Yrotation Zrotation
												JOINT LeftHandMiddle3
												{
													OFFSET 3.701603 0.000000 0.000000
													CHANNELS 3 Xrotation Yrotation Zrotation
													JOINT LeftHandMiddle4
													{
														OFFSET 2.322544 0.000000 0.000000
														CHANNELS 3 Xrotation Yrotation Zrotation
														End Site
														{
															OFFSET 0.000000 0.000000 0.000000
														}
													}
												}
											}
										}
										JOINT LeftHandRing1
										{
											OFFSET 8.426460 -0.424637 -3.286992
											CHANNELS 3 Xrotation Yrotation Zrotation
											JOINT LeftHandRing2
											{
												OFFSET 3.126408 0.000000 0.000000
												CHANNELS 3 Xrotation Yrotation Zrotation
												JOINT LeftHandRing3
												{
													OFFSET 3.085026 0.000000 0.000000
													CHANNELS 3 Xrotation Yrotation Zrotation
													JOINT LeftHandRing4
													{
														OFFSET 1.644005 0.000000 0.000000
														CHANNELS 3 Xrotation Yrotation Zrotation
														End Site
														{
															OFFSET 0.000000 0.000000 0.000000
														}
													}
												}
											}
										}
									}
								}
							}
						}
					}
					JOINT RightShoulder
					{
						OFFSET -2.196100 4.412496 0.070690
						CHANNELS 3 Xrotation Yrotation Zrotation
						JOINT RightShoulder_split
						{
							OFFSET -2.196100 4.412496 0.070690
							CHANNELS 3 Xrotation Yrotation Zrotation
							JOINT RightArm
							{
								OFFSET -8.771282 -2.981682 -0.094208
								CHANNELS 3 Xrotation Yrotation Zrotation
								JOINT RightForeArm
								{
									OFFSET -8.494598 0.000000 0.000000
									CHANNELS 3 Xrotation Yrotation Zrotation
									JOINT RightHand
									{
										OFFSET -18.483803 0.000000 0.000001
										CHANNELS 3 Xrotation Yrotation Zrotation
										JOINT RightHandThumb1
										{
											OFFSET -2.527351 -1.008072 2.575253
											CHANNELS 3 Xrotation Yrotation Zrotation
											JOINT RightHandThumb2
											{
												OFFSET -2.321518 -1.340328 1.340329
												CHANNELS 3 Xrotation Yrotation Zrotation
												JOINT RightHandThumb3
												{
													OFFSET -2.657753 -1.534454 1.534455
													CHANNELS 3 Xrotation Yrotation Zrotation
													JOINT RightHandThumb4
													{
														OFFSET -1.807510 -1.043568 1.043567
														CHANNELS 3 Xrotation Yrotation Zrotation
														End Site
														{
															OFFSET 0.000000 0.000000 0.000000
														}
													}
												}
											}
										}
										JOINT RightHandIndex1
										{
											OFFSET -8.811420 0.015533 2.887987
											CHANNELS 3 Xrotation Yrotation Zrotation
											JOINT RightHandIndex2
											{
												OFFSET -3.537502 0.000000 0.000000
												CHANNELS 3 Xrotation Yrotation Zrotation
												JOINT RightHandIndex3
												{
													OFFSET -3.356201 0.000000 0.000000
													CHANNELS 3 Xrotation Yrotation Zrotation
													JOINT RightHandIndex4
													{
														OFFSET -1.933098 0.000000 0.000000
														CHANNELS 3 Xrotation Yrotation Zrotation
														End Site
														{
															OFFSET 0.000000 0.000000 0.000000
														}
													}
												}
											}
										}
										JOINT RightHandMiddle1
										{
											OFFSET -8.178135 0.000000 0.000000
											CHANNELS 3 Xrotation Yrotation Zrotation
											JOINT RightHandMiddle2
											{
												OFFSET -3.901302 0.000000 0.000000
												CHANNELS 3 Xrotation Yrotation Zrotation
												JOINT RightHandMiddle3
												{
													OFFSET -3.909599 0.000000 0.000000
													CHANNELS 3 Xrotation Yrotation Zrotation
													JOINT RightHandMiddle4
													{
														OFFSET -2.376003 0.000000 0.000000
														CHANNELS 3 Xrotation Yrotation Zrotation
														End Site
														{
															OFFSET 0.000000 0.000000 0.000000
														}
													}
												}
											}
										}
										JOINT RightHandRing1
										{
											OFFSET -7.559013 0.014137 -2.865403
											CHANNELS 3 Xrotation Yrotation Zrotation
											JOINT RightHandRing2
											{
												OFFSET -3.449306 0.000000 0.000000
												CHANNELS 3 Xrotation Yrotation Zrotation
												JOINT RightHandRing3
												{
													OFFSET -3.362106 0.000000 0.000000
													CHANNELS 3 Xrotation Yrotation Zrotation
													JOINT RightHandRing4
													{
														OFFSET -2.076401 0.000000 0.000000
														CHANNELS 3 Xrotation Yrotation Zrotation
														End Site
														{
															OFFSET 0.000000 0.000000 0.000000
														}
													}
												}
											}
										}
									}
								}
							}
						}
					}
				}
			}
		}
	}
	JOINT LeftUpLeg
	{
		OFFSET 10.205400 -3.823500 0.155100
		CHANNELS 3 Xrotation Yrotation Zrotation
		JOINT LeftLeg
		{
			OFFSET 0.708757 -12.982077 0.567790
			CHANNELS 3 Xrotation Yrotation Zrotation
			JOINT LeftFoot
			{
				OFFSET -0.708756 -10.717838 -2.184338
				CHANNELS 3 Xrotation Yrotation Zrotation
				JOINT LeftToeBase
				{
					OFFSET 0.108149 -7.191104 7.560241
					CHANNELS 3 Xrotation Yrotation Zrotation
					JOINT LeftToe_End
					{
						OFFSET 0.070230 0.081724 4.490308
						CHANNELS 3 Xrotation Yrotation Zrotation
						End Site
						{
							OFFSET 0.000000 0.000000 0.000000
						}
					}
				}
			}
		}
	}
	JOINT RightUpLeg
	{
		OFFSET -10.205400 -3.823500 0.005500
		CHANNELS 3 Xrotation Yrotation Zrotation
		JOINT RightLeg
		{
			OFFSET -0.708756 -12.982134 0.610632
			CHANNELS 3 Xrotation Yrotation Zrotation
			JOINT RightFoot
			{
				OFFSET 0.708754 -10.717769 -1.945823
				CHANNELS 3 Xrotation Yrotation Zrotation
				JOINT RightToeBase
				{
					OFFSET -0.108140 -7.191069 7.372968
					CHANNELS 3 Xrotation Yrotation Zrotation
					JOINT RightToe_End
					{
						OFFSET -0.070227 0.081735 4.479403
						CHANNELS 3 Xrotation Yrotation Zrotation
						End Site
						{
							OFFSET 0.000000 0.000000 0.000000
						}
					}
				}
			}
		}
	}
}
MOTION
Frames: 4
Frame Time: 0.016667
0.947165 27.253601 -0.997852 -5.289665 -44.874367 0.039150 9.463321 6.952834 -1.707203 2.187716 0.989888 -0.915628 0.000000 0.000000 0.000000 2.202829 0.982780 -0.894153 0.084654 13.220555 4.538678 8.920923 20.138143 -4.130236 0.000001 0.000000 0.000000 1.117182 3.546348 -8.633328 0.000000 0.000000 0.000000 -53.487020 4.935509 -51.502994 0.000027 -106.358087 0.000047 1.988595 -7.706140 -15.869263 -6.141218 -11.690805 -6.761685 9.914108 42.595512 3.409853 -0.422804 8.108069 27.509126 -0.000003 -0.000003 -0.000002 0.255306 3.378218 -45.814348 5.654087 5.847756 -88.067455 2.162138 4.544822 -50.866365 0.000000 -0.000000 -0.000001 -0.461488 3.841595 -39.722679 6.450750 5.820371 -95.892878 2.182887 4.561569 -51.127723 0.000001 -0.000001 0.000000 0.469712 4.966826 -39.799437 8.181033 5.368632 -113.502991 3.200480 5.218127 -63.022989 -0.000001 0.000002 -0.000001 3.036133 13.027203 -5.371421 0.000000 0.000000 0.000000 -48.713715 27.172832 83.457091 -0.000017 105.988287 -0.000024 -8.345351 17.548071 8.775672 -7.341088 13.749678 7.412327 9.855751 -44.489110 -3.903252 -0.115771 -14.513078 -28.973874 0.000002 0.000001 0.000003 -0.124377 -2.384776 45.108878 4.500602 -4.654554 88.071178 1.723235 -3.618374 50.920102 0.000001 -0.000001 0.000000 -0.761617 -2.932903 39.031072 5.133901 -4.632754 95.881656 1.739751 -3.631702 51.181381 -0.000000 0.000000 0.000001 0.154755 -4.068802 39.122658 6.509739 -4.273593 113.462870 2.549585 -4.153922 63.067351 0.000000 0.000001 -0.000001 -38.223125 0.278097 24.761627 64.807096 -10.597302 3.829593 -23.764844 -5.114014 -21.315646 -1.594043 -0.000001 -0.000004 0.000000 0.000005 -0.000000 -13.650415 -9.631549 -38.353916 66.374084 0.333818 -6.380898 -39.258278 -15.971287 30.411192 -0.013002 0.000011 0.000008 0.000000 0.000000 -0.000001 
0.931802 27.209179 -1.061157 -5.394086 -45.139081 -0.023502 9.478219 7.041929 -1.574490 2.190249 1.012032 -0.889778 0.000000 0.000000 0.000000 2.204669 1.005827 -0.868760 0.085769 13.245582 4.386411 8.800630 20.230045 -4.209239 -0.000001 0.000000 0.000000 1.115721 3.626820 -8.693607 0.000000 0.000000 0.000000 -53.153649 4.985196 -51.684318 0.000022 -106.535242 0.000023 2.135042 -7.826412 -15.735525 -6.141218 -11.690801 -6.761685 9.914108 42.595512 3.409843 -0.422801 8.108069 27.509120 -0.000003 0.000004 -0.000000 0.255308 3.378217 -45.814337 5.654082 5.847755 -88.067455 2.162135 4.544822 -50.866362 -0.000001 -0.000001 0.000002 -0.461486 3.841591 -39.722679 6.450754 5.820373 -95.892871 2.182890 4.561573 -51.127719 -0.000001 0.000000 -0.000003 0.469714 4.966824 -39.799441 8.181030 5.368639 -113.502984 3.200484 5.218128 -63.022989 -0.000001 0.000000 -0.000001 3.033777 13.290779 -5.488902 0.000000 0.000000 0.000000 -48.445603 26.967609 82.836500 0.000044 106.217269 -0.000078 -8.837571 17.355374 8.303458 -7.341094 13.749682 7.412332 9.855757 -44.489113 -3.903250 -0.115774 -14.513081 -28.973874 0.000001 -0.000002 -0.000000 -0.124376 -2.384773 45.108878 4.500605 -4.654555 88.071178 1.723236 -3.618374 50.920102 0.000000 -0.000001 -0.000003 -0.761617 -2.932904 39.031075 5.133901 -4.632754 95.881663 1.739747 -3.631699 51.181377 0.000001 -0.000002 0.000003 0.154755 -4.068800 39.122661 6.509739 -4.273595 113.462863 2.549587 -4.153928 63.067344 0.000002 0.000002 0.000001 -38.609208 -0.090690 24.914665 65.566264 -10.639272 3.903922 -23.114393 -4.982869 -21.496156 -2.134565 -0.000010 -0.000005 -0.000000 -0.000001 -0.000000 -14.084679 -9.472687 -38.443231 66.838893 0.775497 -6.506800 -39.489555 -15.969057 30.387238 -0.000004 -0.000019 0.004280 0.000000 -0.000001 0.000000 
0.927718 27.164623 -1.111566 -5.525017 -45.428992 -0.114922 9.513244 7.104268 -1.432655 2.197572 1.027110 -0.862104 0.000000 0.000000 0.000000 2.211434 1.021833 -0.841506 0.080984 13.269759 4.242636 8.681405 20.313041 -4.292195 0.000000 0.000000 -0.000001 1.116598 3.696285 -8.750995 0.000000 0.000000 0.000000 -52.843043 5.031862 -51.853454 -0.000037 -106.672385 -0.000023 2.300291 -7.951173 -15.637932 -6.141216 -11.690804 -6.761688 9.914120 42.595512 3.409843 -0.422798 8.108072 27.509121 -0.000000 0.000002 -0.000000 0.255307 3.378219 -45.814337 5.654084 5.847754 -88.067455 2.162136 4.544822 -50.866365 -0.000001 -0.000000 -0.000001 -0.461486 3.841589 -39.722679 6.450754 5.820370 -95.892871 2.182890 4.561572 -51.127723 0.000000 0.000000 0.000001 0.469710 4.966824 -39.799441 8.181033 5.368633 -113.502984 3.200481 5.218128 -63.022989 0.000000 -0.000000 -0.000000 3.025586 13.532522 -5.623955 0.000000 0.000000 0.000000 -48.207762 26.760165 82.253018 -0.000070 106.474248 0.000032 -9.184496 17.196919 7.719688 -7.341090 13.749679 7.412335 9.855759 -44.489110 -3.903260 -0.115773 -14.513080 -28.973874 0.000001 -0.000003 0.000001 -0.124374 -2.384776 45.108881 4.500602 -4.654554 88.071178 1.723237 -3.618376 50.920102 -0.000001 0.000000 -0.000001 -0.761617 -2.932906 39.031072 5.133895 -4.632756 95.881663 1.739749 -3.631705 51.181384 -0.000000 -0.000001 -0.000006 0.154755 -4.068803 39.122661 6.509738 -4.273595 113.462870 2.549588 -4.153926 63.067344 0.000000 0.000001 0.000002 -38.967431 -0.476034 25.070761 66.421110 -10.620475 3.927438 -22.510700 -4.936529 -21.646529 -2.857453 -0.000009 0.000177 0.000000 -0.000003 0.000000 -14.590285 -9.326250 -38.541767 67.362372 1.230237 -6.685861 -39.724155 -15.934707 30.255177 -0.027964 -0.000017 0.000006 -0.000000 0.000000 -0.000000 
0.932214 27.119114 -1.149263 -5.684352 -45.736026 -0.231955 9.564042 7.139542 -1.290553 2.208615 1.035260 -0.834415 0.000000 0.000000 0.000000 2.222027 1.030862 -0.814187 0.077828 13.290482 4.114898 8.569949 20.386122 -4.382673 0.000001 -0.000000 -0.000001 1.119854 3.753391 -8.805327 0.000000 0.000000 0.000000 -52.554829 5.073430 -52.013123 -0.000012 -106.767550 -0.000017 2.477025 -8.092278 -15.589492 -6.141218 -11.690799 -6.761682 9.914111 42.595512 3.409853 -0.422803 8.108072 27.509120 -0.000001 0.000003 -0.000002 0.255307 3.378219 -45.814337 5.654083 5.847755 -88.067455 2.162137 4.544822 -50.866365 0.000000 -0.000000 -0.000001 -0.461485 3.841590 -39.722679 6.450753 5.820372 -95.892871 2.182892 4.561572 -51.127716 -0.000002 -0.000000 0.000003 0.469712 4.966824 -39.799437 8.181036 5.368637 -113.502991 3.200479 5.218129 -63.022982 -0.000000 0.000001 0.000000 3.012421 13.754814 -5.753883 0.000000 0.000000 0.000000 -47.992348 26.566321 81.688892 -0.000053 106.756246 0.000011 -9.402011 17.062724 7.024364 -7.341089 13.749681 7.412330 9.855754 -44.489113 -3.903254 -0.115774 -14.513083 -28.973878 0.000003 -0.000004 0.000001 -0.124375 -2.384773 45.108881 4.500605 -4.654552 88.071178 1.723237 -3.618374 50.920105 -0.000001 0.000001 -0.000000 -0.761616 -2.932902 39.031075 5.133898 -4.632756 95.881663 1.739749 -3.631700 51.181381 0.000001 -0.000000 -0.000004 0.154756 -4.068802 39.122661 6.509746 -4.273593 113.462863 2.549586 -4.153925 63.067344 -0.000001 0.000002 -0.000001 -39.325948 -0.873516 25.204960 67.397260 -10.613499 3.936605 -21.911177 -4.900772 -21.745167 -3.825586 0.000020 0.000583 0.000000 0.000003 -0.000000 -15.127701 -9.186437 -38.658399 67.901246 1.706988 -6.905472 -39.945842 -15.880104 30.071933 -0.090317 0.000045 -0.000003 0.000000 -0.000000 0.000000 
